<svg width="20" height="20" viewBox="0 0 20 20" fill="none" xmlns="http://www.w3.org/2000/svg">
<mask id="mask0_379_1296" style="mask-type:alpha" maskUnits="userSpaceOnUse" x="0" y="0" width="20" height="20">
<rect width="20" height="20" fill="#D9D9D9"/>
</mask>
<g mask="url(#mask0_379_1296)">
<path d="M4.87435 14.25C5.58268 13.7083 6.37435 13.2812 7.24935 12.9687C8.12435 12.6562 9.04102 12.5 9.99935 12.5C10.9577 12.5 11.8743 12.6562 12.7493 12.9687C13.6243 13.2812 14.416 13.7083 15.1243 14.25C15.6105 13.6805 15.9889 13.0347 16.2598 12.3125C16.5306 11.5903 16.666 10.8194 16.666 9.99999C16.666 8.15277 16.0167 6.57985 14.7181 5.28124C13.4195 3.98263 11.8466 3.33332 9.99935 3.33332C8.15213 3.33332 6.57921 3.98263 5.2806 5.28124C3.98199 6.57985 3.33268 8.15277 3.33268 9.99999C3.33268 10.8194 3.4681 11.5903 3.73893 12.3125C4.00977 13.0347 4.38824 13.6805 4.87435 14.25ZM9.99935 10.8333C9.1799 10.8333 8.48893 10.5521 7.92643 9.98957C7.36393 9.42707 7.08268 8.7361 7.08268 7.91666C7.08268 7.09721 7.36393 6.40624 7.92643 5.84374C8.48893 5.28124 9.1799 4.99999 9.99935 4.99999C10.8188 4.99999 11.5098 5.28124 12.0723 5.84374C12.6348 6.40624 12.916 7.09721 12.916 7.91666C12.916 8.7361 12.6348 9.42707 12.0723 9.98957C11.5098 10.5521 10.8188 10.8333 9.99935 10.8333ZM9.99935 18.3333C8.84657 18.3333 7.76324 18.1146 6.74935 17.6771C5.73546 17.2396 4.85352 16.6458 4.10352 15.8958C3.35352 15.1458 2.75977 14.2639 2.32227 13.25C1.88477 12.2361 1.66602 11.1528 1.66602 9.99999C1.66602 8.84721 1.88477 7.76388 2.32227 6.74999C2.75977 5.7361 3.35352 4.85416 4.10352 4.10416C4.85352 3.35416 5.73546 2.76041 6.74935 2.32291C7.76324 1.88541 8.84657 1.66666 9.99935 1.66666C11.1521 1.66666 12.2355 1.88541 13.2493 2.32291C14.2632 2.76041 15.1452 3.35416 15.8952 4.10416C16.6452 4.85416 17.2389 5.7361 17.6764 6.74999C18.1139 7.76388 18.3327 8.84721 18.3327 9.99999C18.3327 11.1528 18.1139 12.2361 17.6764 13.25C17.2389 14.2639 16.6452 15.1458 15.8952 15.8958C15.1452 16.6458 14.2632 17.2396 13.2493 17.6771C12.2355 18.1146 11.1521 18.3333 9.99935 18.3333ZM9.99935 16.6667C10.7355 16.6667 11.4299 16.559 12.0827 16.3437C12.7355 16.1285 13.3327 15.8194 13.8743 15.4167C13.3327 15.0139 12.7355 14.7049 12.0827 14.4896C11.4299 14.2743 10.7355 14.1667 9.99935 14.1667C9.26324 14.1667 8.56879 14.2743 7.91602 14.4896C7.26324 14.7049 6.66602 15.0139 6.12435 15.4167C6.66602 15.8194 7.26324 16.1285 7.91602 16.3437C8.56879 16.559 9.26324 16.6667 9.99935 16.6667ZM9.99935 9.16666C10.3605 9.16666 10.6591 9.0486 10.8952 8.81249C11.1313 8.57638 11.2493 8.27777 11.2493 7.91666C11.2493 7.55555 11.1313 7.25693 10.8952 7.02082C10.6591 6.78471 10.3605 6.66666 9.99935 6.66666C9.63824 6.66666 9.33963 6.78471 9.10352 7.02082C8.8674 7.25693 8.74935 7.55555 8.74935 7.91666C8.74935 8.27777 8.8674 8.57638 9.10352 8.81249C9.33963 9.0486 9.63824 9.16666 9.99935 9.16666Z" fill="#505050"/>
</g>
</svg>
