<svg width="24" height="24" viewBox="0 0 24 24" fill="none" xmlns="http://www.w3.org/2000/svg">
<path fill-rule="evenodd" clip-rule="evenodd" d="M22.4994 12C22.4994 11.8011 22.4204 11.6103 22.2797 11.4697C22.1391 11.329 21.9483 11.25 21.7494 11.25H4.05989L8.78039 6.531C8.85012 6.46127 8.90543 6.37849 8.94317 6.28738C8.98091 6.19627 9.00033 6.09862 9.00033 6C9.00033 5.90139 8.98091 5.80374 8.94317 5.71263C8.90543 5.62152 8.85012 5.53873 8.78039 5.469C8.71066 5.39927 8.62787 5.34396 8.53676 5.30622C8.44565 5.26848 8.348 5.24905 8.24939 5.24905C8.15077 5.24905 8.05312 5.26848 7.96201 5.30622C7.8709 5.34396 7.78812 5.39927 7.71839 5.469L1.71839 11.469C1.64854 11.5387 1.59313 11.6214 1.55532 11.7126C1.51751 11.8037 1.49805 11.9014 1.49805 12C1.49805 12.0987 1.51751 12.1963 1.55532 12.2875C1.59313 12.3786 1.64854 12.4613 1.71839 12.531L7.71839 18.531C7.78812 18.6007 7.8709 18.656 7.96201 18.6938C8.05312 18.7315 8.15077 18.7509 8.24939 18.7509C8.348 18.7509 8.44565 18.7315 8.53676 18.6938C8.62787 18.656 8.71066 18.6007 8.78039 18.531C8.85012 18.4613 8.90543 18.3785 8.94317 18.2874C8.98091 18.1963 9.00033 18.0986 9.00033 18C9.00033 17.9014 8.98091 17.8037 8.94317 17.7126C8.90543 17.6215 8.85012 17.5387 8.78039 17.469L4.05989 12.75H21.7494C21.9483 12.75 22.1391 12.671 22.2797 12.5303C22.4204 12.3897 22.4994 12.1989 22.4994 12Z" fill="white"/>
</svg>
