<svg width="20" height="22" viewBox="0 0 20 22" fill="none" xmlns="http://www.w3.org/2000/svg">
<path d="M14 21.5C13.7167 21.5 13.4792 21.4042 13.2875 21.2125C13.0958 21.0208 13 20.7833 13 20.5C13 20.2167 13.0958 19.9792 13.2875 19.7875C13.4792 19.5958 13.7167 19.5 14 19.5H17V18.5H14C13.7167 18.5 13.4792 18.4042 13.2875 18.2125C13.0958 18.0208 13 17.7833 13 17.5C13 17.2167 13.0958 16.9792 13.2875 16.7875C13.4792 16.5958 13.7167 16.5 14 16.5H17V15.5H14C13.7167 15.5 13.4792 15.4042 13.2875 15.2125C13.0958 15.0208 13 14.7833 13 14.5C13 14.2167 13.0958 13.9792 13.2875 13.7875C13.4792 13.5958 13.7167 13.5 14 13.5H17V12.5H14C13.7167 12.5 13.4792 12.4042 13.2875 12.2125C13.0958 12.0208 13 11.7833 13 11.5C13 11.2167 13.0958 10.9792 13.2875 10.7875C13.4792 10.5958 13.7167 10.5 14 10.5H17V9.5H14C13.7167 9.5 13.4792 9.40417 13.2875 9.2125C13.0958 9.02083 13 8.78333 13 8.5C13 8.21667 13.0958 7.97917 13.2875 7.7875C13.4792 7.59583 13.7167 7.5 14 7.5H17V6.5H14C13.7167 6.5 13.4792 6.40417 13.2875 6.2125C13.0958 6.02083 13 5.78333 13 5.5C13 5.21667 13.0958 4.97917 13.2875 4.7875C13.4792 4.59583 13.7167 4.5 14 4.5H18C18.55 4.5 19.0208 4.69583 19.4125 5.0875C19.8042 5.47917 20 5.95 20 6.5V19.5C20 20.05 19.8042 20.5208 19.4125 20.9125C19.0208 21.3042 18.55 21.5 18 21.5H14ZM6 13.5C7.1 13.5 8.04167 12.9583 8.825 11.875C9.60833 10.7917 10 9.5 10 8C10 6.5 9.60833 5.20833 8.825 4.125C8.04167 3.04167 7.1 2.5 6 2.5C4.9 2.5 3.95833 3.04167 3.175 4.125C2.39167 5.20833 2 6.5 2 8C2 9.5 2.39167 10.7917 3.175 11.875C3.95833 12.9583 4.9 13.5 6 13.5ZM6 21.5C5.2 21.5 4.54167 21.2042 4.025 20.6125C3.50833 20.0208 3.30833 19.325 3.425 18.525L3.825 15C2.69167 14.45 1.77083 13.5458 1.0625 12.2875C0.354167 11.0292 0 9.6 0 8C0 5.91667 0.583333 4.14583 1.75 2.6875C2.91667 1.22917 4.33333 0.5 6 0.5C7.66667 0.5 9.08333 1.22917 10.25 2.6875C11.4167 4.14583 12 5.91667 12 8C12 9.6 11.6458 11.0292 10.9375 12.2875C10.2292 13.5458 9.30833 14.45 8.175 15L8.575 18.525C8.69167 19.325 8.49167 20.0208 7.975 20.6125C7.45833 21.2042 6.8 21.5 6 21.5Z" fill="#505050"/>
</svg>
