<svg width="128" height="90" viewBox="0 0 128 90" fill="none" xmlns="http://www.w3.org/2000/svg">
<path d="M31.7783 0.840209C28.7267 -0.2311 25.3559 1.16475 23.9558 4.08042C23.8251 4.35215 21.8112 8.594 19.8848 15.1002C21.888 15.4629 23.9707 15.9055 26.1049 16.447C28.1002 16.953 30.1397 17.5495 32.1968 18.241C33.0682 18.5338 33.9417 18.844 34.8174 19.1735C35.2002 18.332 35.5964 17.5046 36.0013 16.6914C36.9679 14.7494 37.9917 12.8924 39.0429 11.1254C40.1697 9.23193 41.3276 7.4431 42.4839 5.7723C36.5038 2.52118 32.0631 0.940125 31.7783 0.840209Z" fill="white"/>
<path d="M104.046 4.07948C102.646 1.16381 99.276 -0.232285 96.2237 0.839272C95.9393 0.939188 91.5145 2.51429 85.5508 5.75326C85.7449 6.03342 85.9393 6.31606 86.1329 6.60243C87.1484 8.10142 88.1017 9.60189 88.999 11.1039C90.1063 12.9584 91.1235 14.8154 92.0495 16.6731C92.4626 17.5 92.8563 18.3271 93.2329 19.1542C94.0927 18.8314 94.9503 18.5279 95.8054 18.2403C97.862 17.5486 99.902 16.9523 101.896 16.446C104.031 15.9045 106.113 15.462 108.117 15.0993C106.191 8.59331 104.177 4.35121 104.046 4.07948Z" fill="white"/>
<path d="M28.8835 44.848C28.8827 40.0936 29.5214 35.5109 30.5999 31.1597C30.2022 31.0087 29.8035 30.8632 29.4063 30.7214C25.1618 29.2067 20.9526 28.1989 17.1266 27.5285C10.6526 26.3942 5.28465 26.2271 2.75501 26.2271C1.43156 26.2271 0.658014 26.2673 0.574213 26.272C0.558593 26.5958 0.160912 34.3186 2.05981 44.1932C3.71922 52.8204 7.55942 64.9668 16.4324 73.8398C24.8221 82.2295 36.0995 86.2182 45.54 88.0993C37.9709 78.2981 28.8835 62.7947 28.8835 44.848Z" fill="white"/>
<path d="M127.424 26.2715C127.343 26.2673 126.569 26.2271 125.246 26.2271C122.716 26.2271 117.348 26.3942 110.874 27.5295C107.048 28.2001 102.84 29.2092 98.5953 30.7253C98.2078 30.8637 97.8193 31.0062 97.4313 31.153C98.5517 35.734 99.1174 40.3049 99.1174 44.849C99.1174 62.7959 90.0295 78.2993 82.4609 88.1C91.9012 86.2189 103.179 82.2297 111.569 73.84C120.442 64.9671 124.282 52.8204 125.942 44.1939C127.839 34.3181 127.442 26.595 127.424 26.2715Z" fill="white"/>
<path d="M84.0846 30.7043C83.4085 28.6043 82.6204 26.5884 81.7642 24.6746C81.5919 24.289 81.4181 23.907 81.2404 23.5301C79.4778 19.7869 77.484 16.4673 75.625 13.722C75.3614 13.3327 75.0979 12.9531 74.8346 12.5778C69.4602 4.92465 64.2321 0.206526 64.0015 0C63.8924 0.0976848 58.6102 4.89267 53.2009 12.6008C50.9631 15.7897 48.7037 19.4779 46.779 23.5381C46.6 23.9159 46.4239 24.2967 46.2509 24.6808C45.3806 26.6134 44.5915 28.6259 43.9196 30.7038C42.4798 35.1573 41.5781 39.9139 41.5781 44.8475C41.5781 48.4202 42.0532 51.8999 42.8609 55.2397C44.2957 61.1712 46.7857 66.6594 49.5679 71.4316C55.9556 82.3897 63.8686 89.5747 64.0012 89.6942L64.0017 89.6947C64.0042 89.6947 64.006 89.6942 64.006 89.6942C64.1371 89.575 72.0488 82.3897 78.436 71.4314C81.2171 66.6599 83.7065 61.1722 85.1418 55.242C85.9496 51.9021 86.4246 48.4216 86.4246 44.848C86.4249 39.8807 85.5021 35.1092 84.0846 30.7043Z" fill="white"/>
</svg>
