<svg width="20" height="20" viewBox="0 0 20 20" fill="none" xmlns="http://www.w3.org/2000/svg">
<g clip-path="url(#clip0_390_2456)">
<path d="M18.7281 9.6056L10.3948 1.27227C10.2907 1.1688 10.1499 1.11072 10.0031 1.11072C9.85635 1.11072 9.71554 1.1688 9.61145 1.27227L1.27812 9.6056C1.1871 9.71188 1.13954 9.84859 1.14495 9.98841C1.15035 10.1282 1.20831 10.2609 1.30725 10.3598C1.40619 10.4587 1.53882 10.5167 1.67864 10.5221C1.81846 10.5275 1.95517 10.48 2.06145 10.3889L10.0003 2.45005L17.9392 10.3945C18.0455 10.4855 18.1822 10.5331 18.322 10.5277C18.4619 10.5223 18.5945 10.4643 18.6934 10.3654C18.7924 10.2664 18.8503 10.1338 18.8557 9.99397C18.8611 9.85415 18.8136 9.71744 18.7226 9.61116L18.7281 9.6056Z" fill="#8100FF"/>
<path d="M15.8333 17.8916H12.9167V12.3498H7.08333V17.8916H4.16667V10.133L3 11.2414V17.8916C3 18.1856 3.12292 18.4675 3.34171 18.6754C3.5605 18.8832 3.85725 19 4.16667 19H8.25V13.4581H11.75V19H15.8333C16.1428 19 16.4395 18.8832 16.6583 18.6754C16.8771 18.4675 17 18.1856 17 17.8916V11.1084L15.8333 10V17.8916Z" fill="#8100FF"/>
<rect x="3" y="8" width="14" height="4" fill="#8100FF"/>
<rect x="3" y="8" width="14" height="5" fill="#8100FF"/>
<rect x="16" y="10" width="8" height="4" transform="rotate(90 16 10)" fill="#8100FF"/>
<rect x="8" y="10" width="8" height="4" transform="rotate(90 8 10)" fill="#8100FF"/>
<rect x="16" y="9" width="12" height="2" transform="rotate(-180 16 9)" fill="#8100FF"/>
<rect x="5" y="6" width="10" height="2" fill="#8100FF"/>
<rect x="6" y="5" width="8" height="2" fill="#8100FF"/>
<rect x="7" y="4" width="6" height="2" fill="#8100FF"/>
<rect x="8" y="3" width="4" height="2" fill="#8100FF"/>
<rect x="9" y="2" width="2" height="2" fill="#8100FF"/>
</g>
<defs>
<clipPath id="clip0_390_2456">
<rect width="20" height="20" fill="white"/>
</clipPath>
</defs>
</svg>
