<svg width="20" height="20" viewBox="0 0 20 20" fill="none" xmlns="http://www.w3.org/2000/svg">
<path d="M7.49935 13.3333C8.96852 13.3333 10.3077 12.7833 11.3352 11.8841L12.4493 14.2175C12.4493 14.2175 12.6785 14.4041 12.9935 14.7141C13.316 15.0166 13.7402 15.4258 14.1468 15.8533L15.2785 17.0133L15.7818 17.5516L17.5493 15.7841L17.011 15.2808L15.851 14.1491C15.4607 13.7753 15.0809 13.3907 14.7119 12.9958C14.4018 12.6808 14.2152 12.4516 14.2152 12.4516L11.8818 11.3375C12.8164 10.2775 13.3322 8.91306 13.3327 7.49996C13.3327 4.28413 10.7152 1.66663 7.49935 1.66663C4.28352 1.66663 1.66602 4.28413 1.66602 7.49996C1.66602 10.7158 4.28352 13.3333 7.49935 13.3333Z" fill="#505050"/>
</svg>
