<svg width="23" height="16" viewBox="0 0 23 16" fill="none" xmlns="http://www.w3.org/2000/svg">
<path d="M5.45482 0.146506C4.9222 -0.0404829 4.33384 0.203152 4.08947 0.712059C4.06667 0.759488 3.71515 1.49987 3.37891 2.63548C3.72856 2.69879 4.09207 2.77603 4.46458 2.87054C4.81285 2.95887 5.16882 3.06299 5.52787 3.18368C5.67998 3.23479 5.83244 3.28892 5.98528 3.34643C6.0521 3.19956 6.12125 3.05515 6.19192 2.91321C6.36064 2.57424 6.53932 2.25012 6.72281 1.9417C6.91949 1.61122 7.12158 1.29899 7.32341 1.00736C6.27963 0.439906 5.50455 0.163946 5.45482 0.146506Z" fill="#8100FF"/>
<path d="M18.0681 0.712199C17.8236 0.203292 17.2355 -0.0403865 16.7027 0.146646C16.6531 0.164085 15.8808 0.439008 14.8398 1.00434C14.8737 1.05324 14.9077 1.10258 14.9415 1.15256C15.1187 1.4142 15.2851 1.67609 15.4417 1.93825C15.635 2.26194 15.8125 2.58607 15.9742 2.91032C16.0462 3.05464 16.115 3.19901 16.1807 3.34337C16.3308 3.28703 16.4805 3.23406 16.6297 3.18386C16.9887 3.06313 17.3447 2.95905 17.6928 2.87068C18.0654 2.77617 18.4289 2.69893 18.7786 2.63562C18.4424 1.50005 18.0908 0.759628 18.0681 0.712199Z" fill="#8100FF"/>
<path d="M4.949 7.82795C4.94887 6.99812 5.06035 6.19823 5.24859 5.43876C5.17918 5.41241 5.10959 5.38701 5.04027 5.36226C4.29941 5.09789 3.56474 4.92198 2.89693 4.80497C1.76695 4.60699 0.830011 4.57782 0.388482 4.57782C0.157483 4.57782 0.0224665 4.58483 0.00783975 4.58565C0.00511346 4.64217 -0.0642987 5.99012 0.26714 7.71366C0.556776 9.21948 1.22705 11.3395 2.77576 12.8882C4.24012 14.3526 6.2085 15.0488 7.85626 15.3771C6.53514 13.6664 4.949 10.9604 4.949 7.82795Z" fill="#8100FF"/>
<path d="M22.1488 4.58569C22.1346 4.58495 21.9996 4.57794 21.7686 4.57794C21.327 4.57794 20.39 4.60711 19.2601 4.80526C18.5923 4.92232 17.8577 5.09845 17.1169 5.36307C17.0493 5.38722 16.9815 5.4121 16.9137 5.43772C17.1093 6.2373 17.208 7.03511 17.208 7.82824C17.208 10.9607 15.6218 13.6667 14.3008 15.3774C15.9485 15.0491 17.917 14.3528 19.3814 12.8884C20.9301 11.3397 21.6004 9.2196 21.89 7.71391C22.2213 5.99016 22.1519 4.64216 22.1488 4.58569Z" fill="#8100FF"/>
<path d="M14.5832 5.35919C14.4652 4.99266 14.3277 4.64079 14.1782 4.30676C14.1482 4.23947 14.1178 4.17278 14.0868 4.107C13.7792 3.45365 13.4312 2.87424 13.1067 2.39507C13.0607 2.32713 13.0147 2.26087 12.9687 2.19535C12.0307 0.85956 11.1181 0.0360476 11.0779 0C11.0588 0.0170501 10.1369 0.853977 9.19272 2.19938C8.80213 2.75597 8.40777 3.39973 8.07183 4.10839C8.04059 4.17434 8.00986 4.24081 7.97966 4.30784C7.82776 4.64516 7.69002 4.99642 7.57275 5.3591C7.32145 6.13644 7.16406 6.96666 7.16406 7.82778C7.16406 8.45136 7.24698 9.05872 7.38796 9.64167C7.63839 10.677 8.073 11.6349 8.55862 12.4678C9.67355 14.3805 11.0547 15.6346 11.0778 15.6554L11.0779 15.6555C11.0784 15.6555 11.0787 15.6554 11.0787 15.6554C11.1016 15.6346 12.4825 14.3805 13.5973 12.4678C14.0827 11.635 14.5173 10.6771 14.7678 9.64206C14.9088 9.05911 14.9917 8.45162 14.9917 7.82787C14.9917 6.96086 14.8306 6.12805 14.5832 5.35919Z" fill="#8100FF"/>
</svg>
