<svg width="20" height="20" viewBox="0 0 20 20" fill="none" xmlns="http://www.w3.org/2000/svg">
<path d="M9.99935 1.66675C5.48185 1.66675 1.66602 5.48258 1.66602 10.0001C1.66602 14.5176 5.48185 18.3334 9.99935 18.3334C14.5168 18.3334 18.3327 14.5176 18.3327 10.0001C18.3327 5.48258 14.5168 1.66675 9.99935 1.66675ZM9.99935 5.83341C11.4385 5.83341 12.4993 6.89341 12.4993 8.33342C12.4993 9.77342 11.4385 10.8334 9.99935 10.8334C8.56102 10.8334 7.49935 9.77342 7.49935 8.33342C7.49935 6.89341 8.56102 5.83341 9.99935 5.83341ZM5.74435 13.9767C6.49185 12.8767 7.73852 12.1434 9.16602 12.1434H10.8327C12.261 12.1434 13.5069 12.8767 14.2544 13.9767C13.1894 15.1167 11.6785 15.8334 9.99935 15.8334C8.32018 15.8334 6.80935 15.1167 5.74435 13.9767Z" fill="#430B7A"/>
</svg>
