<svg width="16" height="16" viewBox="0 0 16 16" fill="none" xmlns="http://www.w3.org/2000/svg">
<path d="M8.00065 1.33337C4.38665 1.33337 1.33398 4.38604 1.33398 8.00004C1.33398 11.614 4.38665 14.6667 8.00065 14.6667C11.6147 14.6667 14.6673 11.614 14.6673 8.00004C14.6673 4.38604 11.6147 1.33337 8.00065 1.33337ZM8.00065 4.66671C9.15198 4.66671 10.0007 5.51471 10.0007 6.66671C10.0007 7.81871 9.15198 8.66671 8.00065 8.66671C6.84998 8.66671 6.00065 7.81871 6.00065 6.66671C6.00065 5.51471 6.84998 4.66671 8.00065 4.66671ZM4.59665 11.1814C5.19465 10.3014 6.19198 9.71471 7.33398 9.71471H8.66732C9.80998 9.71471 10.8067 10.3014 11.4047 11.1814C10.5527 12.0934 9.34398 12.6667 8.00065 12.6667C6.65732 12.6667 5.44865 12.0934 4.59665 11.1814Z" fill="#8100FF"/>
</svg>
