<svg width="16" height="16" viewBox="0 0 16 16" fill="none" xmlns="http://www.w3.org/2000/svg">
<path d="M14.7215 7.59684C14.1722 6.43965 13.5186 5.4959 12.7605 4.76559L11.9655 5.56059C12.6138 6.18012 13.1785 6.99059 13.6668 7.99996C12.3668 10.6906 10.5215 11.9687 7.9996 11.9687C7.24262 11.9687 6.54538 11.8521 5.90788 11.619L5.04648 12.4804C5.93189 12.8893 6.91627 13.0937 7.9996 13.0937C11.0027 13.0937 13.2434 11.5296 14.7215 8.40152C14.7809 8.27572 14.8117 8.13831 14.8117 7.99918C14.8117 7.86005 14.7809 7.72264 14.7215 7.59684ZM13.7282 2.58684L13.0621 1.91996C13.0505 1.90834 13.0367 1.89912 13.0215 1.89283C13.0064 1.88654 12.9901 1.8833 12.9737 1.8833C12.9572 1.8833 12.941 1.88654 12.9258 1.89283C12.9106 1.89912 12.8968 1.90834 12.8852 1.91996L11.1763 3.62809C10.2341 3.14684 9.17523 2.90621 7.9996 2.90621C4.99648 2.90621 2.75585 4.47027 1.27773 7.5984C1.21831 7.72421 1.1875 7.86161 1.1875 8.00074C1.1875 8.13987 1.21831 8.27728 1.27773 8.40309C1.86825 9.64684 2.57919 10.6438 3.41054 11.3939L1.7571 13.0468C1.73368 13.0703 1.72052 13.1021 1.72052 13.1352C1.72052 13.1683 1.73368 13.2001 1.7571 13.2236L2.42413 13.8906C2.44757 13.914 2.47935 13.9272 2.51249 13.9272C2.54563 13.9272 2.57741 13.914 2.60085 13.8906L13.7282 2.76371C13.7398 2.7521 13.749 2.73832 13.7553 2.72314C13.7616 2.70797 13.7649 2.6917 13.7649 2.67527C13.7649 2.65885 13.7616 2.64258 13.7553 2.62741C13.749 2.61223 13.7398 2.59845 13.7282 2.58684ZM2.33241 7.99996C3.63398 5.30934 5.47929 4.03121 7.9996 4.03121C8.85179 4.03121 9.62663 4.17746 10.3296 4.47481L9.23116 5.57324C8.71096 5.29569 8.11532 5.19268 7.53211 5.27941C6.9489 5.36614 6.40901 5.63802 5.99209 6.05495C5.57516 6.47187 5.30328 7.01176 5.21655 7.59497C5.12982 8.17818 5.23283 8.77382 5.51038 9.29402L4.20695 10.5975C3.48554 9.96074 2.86366 9.09809 2.33241 7.99996ZM6.1871 7.99996C6.18738 7.72444 6.25264 7.45286 6.37759 7.2073C6.50254 6.96174 6.68365 6.74911 6.90621 6.58669C7.12878 6.42428 7.38651 6.31665 7.65849 6.27256C7.93046 6.22847 8.209 6.24915 8.47148 6.33293L6.27007 8.53434C6.21489 8.36159 6.1869 8.18131 6.1871 7.99996Z" fill="#505050"/>
<path d="M7.93664 9.75C7.88258 9.75 7.8293 9.7475 7.77648 9.74265L6.95117 10.568C7.44756 10.7581 7.98839 10.8003 8.50828 10.6896C9.02817 10.5789 9.50486 10.3199 9.88072 9.94407C10.2566 9.56821 10.5155 9.09152 10.6262 8.57164C10.737 8.05175 10.6947 7.51092 10.5046 7.01453L9.6793 7.83984C9.68414 7.89265 9.68664 7.94593 9.68664 8C9.68676 8.22984 9.64158 8.45746 9.55368 8.66984C9.46578 8.88221 9.33688 9.07518 9.17435 9.23771C9.01183 9.40023 8.81886 9.52913 8.60648 9.61704C8.39411 9.70494 8.16649 9.75012 7.93664 9.75Z" fill="#505050"/>
</svg>
