<svg width="16" height="16" viewBox="0 0 16 16" fill="none" xmlns="http://www.w3.org/2000/svg">
<path d="M8.00065 1.33325C4.38665 1.33325 1.33398 4.38592 1.33398 7.99992C1.33398 11.6139 4.38665 14.6666 8.00065 14.6666C11.6147 14.6666 14.6673 11.6139 14.6673 7.99992C14.6673 4.38592 11.6147 1.33325 8.00065 1.33325ZM8.00065 4.66659C9.15198 4.66659 10.0007 5.51459 10.0007 6.66659C10.0007 7.81859 9.15198 8.66659 8.00065 8.66659C6.84998 8.66659 6.00065 7.81859 6.00065 6.66659C6.00065 5.51459 6.84998 4.66659 8.00065 4.66659ZM4.59665 11.1813C5.19465 10.3013 6.19198 9.71459 7.33398 9.71459H8.66732C9.80998 9.71459 10.8067 10.3013 11.4047 11.1813C10.5527 12.0933 9.34398 12.6666 8.00065 12.6666C6.65732 12.6666 5.44865 12.0933 4.59665 11.1813Z" fill="#5D14A6"/>
</svg>
