<svg width="20" height="20" viewBox="0 0 20 20" fill="none" xmlns="http://www.w3.org/2000/svg">
<g clip-path="url(#clip0_331_4405)">
<path d="M17.917 3.33332H15.6948V4.99998C15.6948 5.16049 15.6632 5.31942 15.6018 5.46771C15.5403 5.61599 15.4503 5.75073 15.3368 5.86422C15.2233 5.97772 15.0886 6.06775 14.9403 6.12917C14.792 6.19059 14.6331 6.2222 14.4726 6.2222C14.3121 6.2222 14.1531 6.19059 14.0049 6.12917C13.8566 6.06775 13.7218 5.97772 13.6083 5.86422C13.4948 5.75073 13.4048 5.61599 13.3434 5.46771C13.282 5.31942 13.2504 5.16049 13.2504 4.99998V3.33332H6.77814V4.99998C6.77814 5.32414 6.64937 5.63501 6.42016 5.86422C6.19095 6.09344 5.88007 6.2222 5.55592 6.2222C5.23176 6.2222 4.92089 6.09344 4.69167 5.86422C4.46246 5.63501 4.33369 5.32414 4.33369 4.99998V3.33332H2.11147C1.97926 3.33181 1.84809 3.35683 1.72572 3.40691C1.60335 3.45698 1.49227 3.53108 1.39903 3.62483C1.3058 3.71858 1.23232 3.83008 1.18292 3.95272C1.13353 4.07537 1.10923 4.20667 1.11147 4.33887V16.7722C1.10926 16.9021 1.13266 17.0311 1.18033 17.1519C1.228 17.2727 1.299 17.383 1.38928 17.4764C1.47957 17.5698 1.58736 17.6444 1.70651 17.6961C1.82566 17.7479 1.95382 17.7756 2.08369 17.7778H17.917C18.0469 17.7756 18.1751 17.7479 18.2942 17.6961C18.4134 17.6444 18.5212 17.5698 18.6114 17.4764C18.7017 17.383 18.7727 17.2727 18.8204 17.1519C18.8681 17.0311 18.8915 16.9021 18.8892 16.7722V4.33887C18.8915 4.209 18.8681 4.07997 18.8204 3.95915C18.7727 3.83833 18.7017 3.72808 18.6114 3.6347C18.5212 3.54132 18.4134 3.46664 18.2942 3.41493C18.1751 3.36322 18.0469 3.33549 17.917 3.33332ZM5.55592 14.4444H4.4448V13.3333H5.55592V14.4444ZM5.55592 11.6666H4.4448V10.5555H5.55592V11.6666ZM5.55592 8.88887H4.4448V7.77776H5.55592V8.88887ZM8.88925 14.4444H7.77814V13.3333H8.88925V14.4444ZM8.88925 11.6666H7.77814V10.5555H8.88925V11.6666ZM8.88925 8.88887H7.77814V7.77776H8.88925V8.88887ZM12.2226 14.4444H11.1115V13.3333H12.2226V14.4444ZM12.2226 11.6666H11.1115V10.5555H12.2226V11.6666ZM12.2226 8.88887H11.1115V7.77776H12.2226V8.88887ZM15.5559 14.4444H14.4448V13.3333H15.5559V14.4444ZM15.5559 11.6666H14.4448V10.5555H15.5559V11.6666ZM15.5559 8.88887H14.4448V7.77776H15.5559V8.88887Z" fill="#5D14A6"/>
<path d="M5.55556 5.55553C5.7029 5.55553 5.84421 5.497 5.94839 5.39281C6.05258 5.28862 6.11111 5.14732 6.11111 4.99997V1.66664C6.11111 1.5193 6.05258 1.37799 5.94839 1.2738C5.84421 1.16962 5.7029 1.11108 5.55556 1.11108C5.40821 1.11108 5.26691 1.16962 5.16272 1.2738C5.05853 1.37799 5 1.5193 5 1.66664V4.99997C5 5.14732 5.05853 5.28862 5.16272 5.39281C5.26691 5.497 5.40821 5.55553 5.55556 5.55553Z" fill="#5D14A6"/>
<path d="M14.4442 5.55553C14.5916 5.55553 14.7329 5.497 14.8371 5.39281C14.9413 5.28862 14.9998 5.14732 14.9998 4.99997V1.66664C14.9998 1.5193 14.9413 1.37799 14.8371 1.2738C14.7329 1.16962 14.5916 1.11108 14.4442 1.11108C14.2969 1.11108 14.1556 1.16962 14.0514 1.2738C13.9472 1.37799 13.8887 1.5193 13.8887 1.66664V4.99997C13.8887 5.14732 13.9472 5.28862 14.0514 5.39281C14.1556 5.497 14.2969 5.55553 14.4442 5.55553Z" fill="#5D14A6"/>
</g>
<defs>
<clipPath id="clip0_331_4405">
<rect width="20" height="20" fill="white"/>
</clipPath>
</defs>
</svg>
