<svg width="24" height="25" viewBox="0 0 24 25" fill="none" xmlns="http://www.w3.org/2000/svg">
<path d="M19.5 22.7568H10.5C10.1022 22.7568 9.72064 22.5988 9.43934 22.3175C9.15804 22.0362 9 21.6547 9 21.2568V19.0068H10.5V21.2568H19.5V3.25684H10.5V5.50684H9V3.25684C9 2.85901 9.15804 2.47748 9.43934 2.19618C9.72064 1.91487 10.1022 1.75684 10.5 1.75684H19.5C19.8978 1.75684 20.2794 1.91487 20.5607 2.19618C20.842 2.47748 21 2.85901 21 3.25684V21.2568C21 21.6547 20.842 22.0362 20.5607 22.3175C20.2794 22.5988 19.8978 22.7568 19.5 22.7568Z" fill="white"/>
<path d="M10.9425 15.6993L13.6275 13.0068H3V11.5068H13.6275L10.9425 8.81434L12 7.75684L16.5 12.2568L12 16.7568L10.9425 15.6993Z" fill="white"/>
</svg>
