<svg width="45" height="11" viewBox="0 0 45 11" fill="none" xmlns="http://www.w3.org/2000/svg">
<path d="M2.135 1.98184V4.60684H5.66V6.27184H2.135V9.04684H6.11V10.7568H0.0350001V0.271835H6.11V1.98184H2.135ZM12.6234 2.32684C13.6134 2.32684 14.4134 2.64184 15.0234 3.27184C15.6334 3.89184 15.9384 4.76184 15.9384 5.88184V10.7568H13.8384V6.16684C13.8384 5.50684 13.6734 5.00184 13.3434 4.65184C13.0134 4.29184 12.5634 4.11184 11.9934 4.11184C11.4134 4.11184 10.9534 4.29184 10.6134 4.65184C10.2834 5.00184 10.1184 5.50684 10.1184 6.16684V10.7568H8.0184V2.44684H10.1184V3.48184C10.3984 3.12184 10.7534 2.84184 11.1834 2.64184C11.6234 2.43184 12.1034 2.32684 12.6234 2.32684ZM20.3804 4.17184V8.19184C20.3804 8.47184 20.4454 8.67684 20.5754 8.80684C20.7154 8.92684 20.9454 8.98684 21.2654 8.98684H22.2404V10.7568H20.9204C19.1504 10.7568 18.2654 9.89684 18.2654 8.17684V4.17184H17.2754V2.44684H18.2654V0.391835H20.3804V2.44684H22.2404V4.17184H20.3804ZM25.8508 3.73684C26.1208 3.29684 26.4708 2.95184 26.9008 2.70184C27.3408 2.45184 27.8408 2.32684 28.4008 2.32684V4.53184H27.8458C27.1858 4.53184 26.6858 4.68684 26.3458 4.99684C26.0158 5.30684 25.8508 5.84684 25.8508 6.61684V10.7568H23.7508V2.44684H25.8508V3.73684ZM29.2753 6.57184C29.2753 5.73184 29.4403 4.98684 29.7703 4.33684C30.1103 3.68684 30.5653 3.18684 31.1353 2.83684C31.7153 2.48684 32.3603 2.31184 33.0703 2.31184C33.6903 2.31184 34.2303 2.43684 34.6903 2.68684C35.1603 2.93684 35.5353 3.25184 35.8153 3.63184V2.44684H37.9303V10.7568H35.8153V9.54184C35.5453 9.93184 35.1703 10.2568 34.6903 10.5168C34.2203 10.7668 33.6753 10.8918 33.0553 10.8918C32.3553 10.8918 31.7153 10.7118 31.1353 10.3518C30.5653 9.99184 30.1103 9.48684 29.7703 8.83684C29.4403 8.17684 29.2753 7.42184 29.2753 6.57184ZM35.8153 6.60184C35.8153 6.09184 35.7153 5.65684 35.5153 5.29684C35.3153 4.92684 35.0453 4.64684 34.7053 4.45684C34.3653 4.25684 34.0003 4.15684 33.6103 4.15684C33.2203 4.15684 32.8603 4.25184 32.5303 4.44184C32.2003 4.63184 31.9303 4.91184 31.7203 5.28184C31.5203 5.64184 31.4203 6.07184 31.4203 6.57184C31.4203 7.07184 31.5203 7.51184 31.7203 7.89184C31.9303 8.26184 32.2003 8.54684 32.5303 8.74684C32.8703 8.94684 33.2303 9.04684 33.6103 9.04684C34.0003 9.04684 34.3653 8.95184 34.7053 8.76184C35.0453 8.56184 35.3153 8.28184 35.5153 7.92184C35.7153 7.55184 35.8153 7.11184 35.8153 6.60184ZM42.0813 3.73684C42.3513 3.29684 42.7013 2.95184 43.1313 2.70184C43.5713 2.45184 44.0713 2.32684 44.6313 2.32684V4.53184H44.0763C43.4163 4.53184 42.9163 4.68684 42.5763 4.99684C42.2463 5.30684 42.0813 5.84684 42.0813 6.61684V10.7568H39.9813V2.44684H42.0813V3.73684Z" fill="white"/>
</svg>
