<svg width="20" height="20" viewBox="0 0 20 20" fill="none" xmlns="http://www.w3.org/2000/svg">
<mask id="mask0_357_1222" style="mask-type:alpha" maskUnits="userSpaceOnUse" x="2" y="0" width="16" height="20">
<path d="M10 18.3333C10 18.3333 16.25 13.3333 16.25 7.91663C16.25 4.46496 13.4517 1.66663 10 1.66663C6.54833 1.66663 3.75 4.46496 3.75 7.91663C3.75 13.3333 10 18.3333 10 18.3333Z" fill="white" stroke="white" stroke-width="1.66667" stroke-linejoin="round"/>
<path d="M10 10.4166C10.3283 10.4166 10.6534 10.352 10.9567 10.2263C11.26 10.1007 11.5356 9.91654 11.7678 9.68439C11.9999 9.45225 12.1841 9.17665 12.3097 8.87333C12.4353 8.57002 12.5 8.24493 12.5 7.91663C12.5 7.58832 12.4353 7.26323 12.3097 6.95992C12.1841 6.6566 11.9999 6.38101 11.7678 6.14886C11.5356 5.91671 11.26 5.73256 10.9567 5.60693C10.6534 5.48129 10.3283 5.41663 10 5.41663C9.33696 5.41663 8.70107 5.68002 8.23223 6.14886C7.76339 6.6177 7.5 7.25358 7.5 7.91663C7.5 8.57967 7.76339 9.21555 8.23223 9.68439C8.70107 10.1532 9.33696 10.4166 10 10.4166Z" fill="black" stroke="black" stroke-width="1.66667" stroke-linejoin="round"/>
</mask>
<g mask="url(#mask0_357_1222)">
<path d="M0 0H20V20H0V0Z" fill="#4D0099"/>
<circle cx="10" cy="8" r="3" fill="white"/>
</g>
</svg>
