<svg width="16" height="16" viewBox="0 0 16 16" fill="none" xmlns="http://www.w3.org/2000/svg">
<mask id="mask0_380_938" style="mask-type:alpha" maskUnits="userSpaceOnUse" x="2" y="0" width="12" height="16">
<path d="M8 14.6667C8 14.6667 13 10.6667 13 6.33337C13 3.57204 10.7613 1.33337 8 1.33337C5.23867 1.33337 3 3.57204 3 6.33337C3 10.6667 8 14.6667 8 14.6667Z" fill="white" stroke="white" stroke-width="1.66667" stroke-linejoin="round"/>
<path d="M8 8.33337C8.26264 8.33337 8.52272 8.28164 8.76537 8.18113C9.00802 8.08062 9.2285 7.93331 9.41421 7.74759C9.59993 7.56187 9.74725 7.34139 9.84776 7.09874C9.94827 6.85609 10 6.59602 10 6.33337C10 6.07073 9.94827 5.81066 9.84776 5.56801C9.74725 5.32536 9.59993 5.10488 9.41421 4.91916C9.2285 4.73344 9.00802 4.58612 8.76537 4.48562C8.52272 4.38511 8.26264 4.33337 8 4.33337C7.46957 4.33337 6.96086 4.54409 6.58579 4.91916C6.21071 5.29423 6 5.80294 6 6.33337C6 6.86381 6.21071 7.37252 6.58579 7.74759C6.96086 8.12266 7.46957 8.33337 8 8.33337Z" fill="black" stroke="black" stroke-width="1.66667" stroke-linejoin="round"/>
</mask>
<g mask="url(#mask0_380_938)">
<path d="M0 0H16V16H0V0Z" fill="#8100FF"/>
<circle cx="7.99961" cy="6.4" r="2.4" fill="white"/>
</g>
</svg>
