<svg width="20" height="20" viewBox="0 0 20 20" fill="none" xmlns="http://www.w3.org/2000/svg">
<path d="M15.8519 14.1475C15.4616 13.7737 15.0817 13.3891 14.7127 12.9942C14.4027 12.6792 14.216 12.45 14.216 12.45L11.8827 11.3359C12.8168 10.2764 13.3324 8.91251 13.3327 7.50002C13.3327 4.28419 10.716 1.66669 7.49935 1.66669C4.28268 1.66669 1.66602 4.28419 1.66602 7.50002C1.66602 10.7159 4.28268 13.3334 7.49935 13.3334C8.96852 13.3334 10.3077 12.7834 11.3352 11.8842L12.4493 14.2175C12.4493 14.2175 12.6785 14.4042 12.9935 14.7142C13.316 15.0167 13.7402 15.4259 14.1468 15.8534L15.2785 17.0134L15.7818 17.5517L17.5493 15.7842L17.011 15.2809C16.6952 14.9709 16.2735 14.5592 15.8519 14.1475ZM7.49935 11.6667C5.20185 11.6667 3.33268 9.79752 3.33268 7.50002C3.33268 5.20252 5.20185 3.33335 7.49935 3.33335C9.79685 3.33335 11.666 5.20252 11.666 7.50002C11.666 9.79752 9.79685 11.6667 7.49935 11.6667Z" fill="#5D14A6"/>
</svg>
