<svg width="16" height="16" viewBox="0 0 16 16" fill="none" xmlns="http://www.w3.org/2000/svg">
<path d="M5.66667 1.52381V0H10.3333V1.52381H5.66667ZM7.22222 9.90476H8.77778V5.33333H7.22222V9.90476ZM8 16C7.04074 16 6.13644 15.8192 5.28711 15.4575C4.43778 15.0959 3.69578 14.6037 3.06111 13.9809C2.42644 13.3582 1.92426 12.6311 1.55456 11.7996C1.18485 10.9681 1 10.0825 1 9.14285C1 8.20317 1.18485 7.31733 1.55456 6.48533C1.92426 5.65333 2.42644 4.92647 3.06111 4.30476C3.69578 3.68305 4.43804 3.19111 5.28789 2.82895C6.13774 2.46679 7.04178 2.28571 8 2.28571C8.8037 2.28571 9.575 2.4127 10.3139 2.66667C11.0528 2.92063 11.7463 3.28889 12.3944 3.77143L13.4833 2.70476L14.5722 3.77143L13.4833 4.83809C13.9759 5.47301 14.3519 6.15238 14.6111 6.87619C14.8704 7.6 15 8.35555 15 9.14285C15 10.0825 14.8151 10.9684 14.4454 11.8004C14.0757 12.6324 13.5736 13.3592 12.9389 13.9809C12.3042 14.6027 11.562 15.0949 10.7121 15.4575C9.86226 15.8202 8.95822 16.001 8 16Z" fill="#5D14A6"/>
</svg>
