<svg width="16" height="16" viewBox="0 0 16 16" fill="none" xmlns="http://www.w3.org/2000/svg">
<g clip-path="url(#clip0_421_1529)">
<path d="M8.47399 8.80004L6.63356 10.632C6.55856 10.7064 6.49903 10.7949 6.4584 10.8924C6.41778 10.9899 6.39686 11.0944 6.39686 11.2C6.39686 11.3056 6.41778 11.4102 6.4584 11.5077C6.49903 11.6052 6.55856 11.6937 6.63356 11.768C6.70794 11.843 6.79645 11.9025 6.89396 11.9431C6.99147 11.9837 7.09606 12.0047 7.20169 12.0047C7.30732 12.0047 7.41191 11.9837 7.50942 11.9431C7.60693 11.9025 7.69544 11.843 7.76982 11.768L10.9706 8.56804C11.0434 8.49195 11.1005 8.40224 11.1386 8.30404C11.2186 8.10927 11.2186 7.89081 11.1386 7.69604C11.1005 7.59784 11.0434 7.50813 10.9706 7.43204L7.76982 4.23206C7.69522 4.15747 7.60664 4.0983 7.50916 4.05793C7.41168 4.01756 7.3072 3.99679 7.20169 3.99679C7.09618 3.99679 6.9917 4.01756 6.89422 4.05793C6.79674 4.0983 6.70817 4.15747 6.63356 4.23206C6.55895 4.30665 6.49977 4.3952 6.45939 4.49266C6.41901 4.59011 6.39823 4.69457 6.39823 4.80006C6.39823 4.90554 6.41901 5.01 6.45939 5.10745C6.49977 5.20491 6.55895 5.29346 6.63356 5.36805L8.47399 7.20004H0.800188C0.587965 7.20004 0.384434 7.28433 0.23437 7.43436C0.0843052 7.58439 0 7.78787 0 8.00004C0 8.21221 0.0843052 8.41569 0.23437 8.56572C0.384434 8.71575 0.587965 8.80004 0.800188 8.80004H8.47399ZM8.00188 7.97545e-05C6.5064 -0.00659524 5.03898 0.405848 3.76606 1.19063C2.49314 1.97541 1.46567 3.10111 0.800188 4.44006C0.704687 4.63101 0.688973 4.85207 0.756502 5.05461C0.824031 5.25715 0.969272 5.42457 1.16027 5.52005C1.35127 5.61553 1.57239 5.63124 1.77497 5.56373C1.97756 5.49621 2.14503 5.35101 2.24053 5.16005C2.7464 4.13872 3.51589 3.27096 4.46949 2.64646C5.42309 2.02195 6.52619 1.66337 7.6648 1.60775C8.80342 1.55212 9.93623 1.80149 10.9462 2.33008C11.9561 2.85866 12.8066 3.64729 13.4096 4.61445C14.0127 5.58162 14.3465 6.69224 14.3765 7.83155C14.4065 8.97085 14.1317 10.0975 13.5804 11.0951C13.0291 12.0926 12.2214 12.9249 11.2407 13.506C10.26 14.087 9.14184 14.3956 8.00188 14.4C6.8087 14.4052 5.63825 14.0739 4.62484 13.4442C3.61143 12.8145 2.79614 11.9119 2.27253 10.84C2.17703 10.6491 2.00957 10.5039 1.80698 10.4364C1.6044 10.3688 1.38328 10.3846 1.19228 10.48C1.00128 10.5755 0.856039 10.7429 0.78851 10.9455C0.720981 11.148 0.736695 11.3691 0.832195 11.56C1.46661 12.8364 2.43059 13.9202 3.62443 14.6992C4.81827 15.4783 6.19861 15.9243 7.62269 15.9912C9.04676 16.0581 10.4628 15.7434 11.7245 15.0796C12.9861 14.4159 14.0474 13.4272 14.7987 12.2159C15.55 11.0045 15.964 9.61454 15.9978 8.18964C16.0315 6.76474 15.6839 5.35669 14.9909 4.11112C14.2979 2.86556 13.2846 1.82772 12.0558 1.10496C10.8271 0.382194 9.42752 0.000748913 8.00188 7.97545e-05Z" fill="#C80101"/>
</g>
<defs>
<clipPath id="clip0_421_1529">
<rect width="16" height="16" fill="white"/>
</clipPath>
</defs>
</svg>
