<svg width="16" height="16" viewBox="0 0 16 16" fill="none" xmlns="http://www.w3.org/2000/svg">
<g clip-path="url(#clip0_331_4773)">
<g clip-path="url(#clip1_331_4773)">
<path d="M14.3681 2.66667C14.3075 2.66043 14.2464 2.66043 14.1859 2.66667H1.74141C1.66166 2.6679 1.58243 2.67986 1.50586 2.70222L7.92808 9.09778L14.3681 2.66667Z" fill="#8100FF"/>
<path d="M15.0263 3.28442L8.5552 9.72887C8.38866 9.89442 8.16336 9.98735 7.92853 9.98735C7.6937 9.98735 7.46841 9.89442 7.30187 9.72887L0.888533 3.33331C0.868817 3.40578 0.858364 3.48044 0.857422 3.55553V12.4444C0.857422 12.6802 0.951072 12.9063 1.11777 13.073C1.28447 13.2397 1.51056 13.3333 1.74631 13.3333H14.1908C14.4265 13.3333 14.6526 13.2397 14.8193 13.073C14.986 12.9063 15.0796 12.6802 15.0796 12.4444V3.55553C15.0761 3.46294 15.0581 3.37146 15.0263 3.28442ZM2.3552 12.4444H1.73742V11.8089L4.96853 8.60442L5.5952 9.23109L2.3552 12.4444ZM14.1819 12.4444H13.5596L10.3196 9.23109L10.9463 8.60442L14.1774 11.8089L14.1819 12.4444Z" fill="#8100FF"/>
</g>
</g>
<defs>
<clipPath id="clip0_331_4773">
<rect width="16" height="16" fill="white"/>
</clipPath>
<clipPath id="clip1_331_4773">
<rect width="16" height="16" fill="white"/>
</clipPath>
</defs>
</svg>
